<svg width="75" height="21" viewBox="0 0 75 21" fill="none" xmlns="http://www.w3.org/2000/svg">
<path d="M5.83026 16.0665C4.67949 16.0665 3.66534 15.8332 2.78683 15.3664C1.90833 14.8997 1.22423 14.2408 0.734536 13.3886C0.244845 12.5368 0 11.5403 0 10.3995V10.1329C0 8.97734 0.240928 7.97739 0.722784 7.13252C1.20464 6.28814 1.8809 5.63259 2.75157 5.16588C3.62224 4.69917 4.62464 4.46582 5.75975 4.46582C6.89485 4.46582 7.85856 4.69917 8.69789 5.16588C9.53722 5.63259 10.1905 6.28814 10.6567 7.13252C11.1228 7.9769 11.3564 8.96266 11.3564 10.0883V10.9992H2.70456C2.73541 11.8588 3.0542 12.5476 3.66093 13.0662C4.26717 13.5847 5.01346 13.844 5.8998 13.844C6.78614 13.844 7.41539 13.6625 7.83555 13.2995C8.25521 12.9365 8.574 12.5256 8.79191 12.0662L11.0073 13.1552C10.7894 13.5554 10.4745 13.9815 10.0627 14.433C9.65034 14.8851 9.10238 15.2701 8.41877 15.5885C7.73467 15.907 6.87183 16.0665 5.83026 16.0665ZM2.72856 9.06588H8.62884C8.56665 8.34038 8.2748 7.76213 7.75426 7.3326C7.23323 6.90308 6.56088 6.68831 5.73722 6.68831C4.91356 6.68831 4.19812 6.90308 3.68492 7.3326C3.17173 7.76262 2.85294 8.34038 2.72856 9.06588Z" fill="#F9FAFB"/>
<path d="M37.5629 7.04397C37.0811 6.19959 36.4396 5.55872 35.6385 5.12137C34.8378 4.6845 34.166 4.46533 33.2336 4.46533C32.1445 4.46533 31.3091 4.64341 30.7259 4.99906C30.1431 5.35423 29.7196 5.76174 29.4551 6.22111H28.8641V4.77647H26.2286L24.4764 4.77696H24.4769L21.3752 4.77647L18.5531 8.57667H17.964L15.1424 4.77647H12.0172L16.2379 10.2214L11.9467 15.7544H15.1184L17.9635 11.8872H18.5526L21.3978 15.7544H24.546L20.2548 10.2214L22.976 6.71033C23.8198 6.7206 26.6056 6.71033 26.6056 6.71033V20.1994H28.8626V14.3768H29.4537C29.6246 14.6439 29.9086 14.91 30.2117 15.1766C30.5148 15.4437 30.9115 15.658 31.4012 15.8209C31.8909 15.9838 32.501 16.0655 33.2321 16.0655C34.1802 16.0655 34.8559 15.8469 35.6482 15.4095C36.4411 14.9731 37.0791 14.3318 37.561 13.4869C38.0423 12.6425 38.2838 11.6279 38.2838 10.442V10.0869C38.2838 8.90151 38.0423 7.88688 37.561 7.04201L37.5629 7.04397ZM35.6042 10.378C35.6042 11.489 35.2888 12.3441 34.6596 12.9448C34.0298 13.5446 33.2253 13.8445 32.2454 13.8445C31.2655 13.8445 30.4771 13.5446 29.8322 12.9448C29.1863 12.3441 28.8646 11.489 28.8646 10.378V10.1554C28.8646 9.02968 29.1863 8.16965 29.8322 7.57721C30.4771 6.98526 31.2817 6.68831 32.2454 6.68831C33.2091 6.68831 34.0102 6.98526 34.6473 7.57721C35.2854 8.17014 35.6042 9.02968 35.6042 10.1554V10.378Z" fill="#F9FAFB"/>
<path d="M40.3455 15.7557V0.199219H43.0275V15.7557H40.3455Z" fill="#F9FAFB"/>
<path d="M51.1049 16.0665C49.9541 16.0665 48.9243 15.8405 48.015 15.3885C47.1056 14.9369 46.3902 14.2921 45.8696 13.4551C45.3486 12.6181 45.0886 11.6142 45.0886 10.444V10.0883C45.0886 8.91814 45.3486 7.91036 45.8696 7.06598C46.3902 6.2216 47.1056 5.57682 48.015 5.13262C48.9243 4.68792 49.9541 4.46582 51.1049 4.46582C52.2557 4.46582 53.2816 4.68792 54.1831 5.13262C55.0846 5.57731 55.7957 6.2216 56.3167 7.06598C56.8372 7.91036 57.0977 8.91814 57.0977 10.0883V10.444C57.0977 11.6147 56.8372 12.6185 56.3167 13.4551C55.7957 14.2921 55.0841 14.9369 54.1831 15.3885C53.2811 15.84 52.2552 16.0665 51.1049 16.0665ZM51.1049 13.7995C52.0843 13.7995 52.8849 13.4996 53.5068 12.8993C54.1283 12.2991 54.4397 11.4586 54.4397 10.377V10.1549C54.4397 9.07371 54.1287 8.23227 53.5068 7.63249C52.8849 7.03223 52.0843 6.73234 51.1049 6.73234C50.1255 6.73234 49.3244 7.03223 48.703 7.63249C48.0811 8.23227 47.7701 9.07371 47.7701 10.1549V10.377C47.7701 11.4586 48.0811 12.2991 48.703 12.8993C49.3244 13.4991 50.1255 13.7995 51.1049 13.7995Z" fill="#F9FAFB"/>
<path d="M59.9598 15.7558L58.1641 4.77734H60.8227L62.0586 14.0445H62.4553L64.2045 4.77734H68.4956L70.2448 14.0445H70.6414L71.8774 4.77734H74.536L72.7403 15.7558H68.286L66.5604 6.48861H66.1637L64.4145 15.7558H59.9603H59.9598Z" fill="#F9FAFB"/>
</svg>
